# Blender v2.81 (sub 16) OBJ File: ''
# www.blender.org
mtllib room.mtl
o Cube.001
v -2.303476 -0.382426 3.705058
v -2.303476 -0.382424 -3.705059
v 2.303476 -0.382424 -3.705059
v 2.303476 -0.382426 3.705058
v -2.303476 -0.129657 -3.705059
v 2.303476 -0.129657 -3.705059
v 2.303476 0.068676 -3.441598
v 2.303476 -0.166118 -3.441598
v 2.303476 3.916144 3.705058
v 2.303476 3.916146 -3.705058
v -2.303476 3.916146 -3.705058
v -2.303476 3.916144 3.705058
v -2.303476 -0.129659 3.705058
v 2.303476 -0.129659 3.705058
v 2.303476 3.687401 3.441598
v -1.850828 3.687401 3.441598
v -1.850828 3.687402 -3.441598
v 2.303476 3.687402 -3.441598
v 2.303476 -0.166119 3.441597
v 2.303476 2.270436 3.705058
v 2.303476 2.265363 3.441598
v -1.850828 -0.166118 -3.441598
v -1.719981 -0.166118 -3.338516
v -1.725548 -0.166119 3.338248
v -1.850828 -0.166119 3.441597
v -1.723262 -0.166118 -3.341599
v -1.723262 0.068676 -3.341599
v -1.850828 0.068676 -3.441598
v -1.850828 2.265363 3.441598
v 2.303476 0.068675 3.441597
v 2.303476 0.068675 3.341598
v -1.723262 0.068675 3.341598
v -1.850828 0.068675 3.441597
v 2.303476 2.265365 -3.441598
v -1.850828 2.265365 -3.441598
v -2.303476 2.270436 3.705058
v -2.303476 2.270437 -3.705058
v 2.303476 2.270437 -3.705058
v 2.303476 -0.166119 3.341598
v -1.723262 -0.166119 3.341598
v 2.303476 0.068676 -3.341599
v 2.303476 -0.166118 -3.341599
v -1.719981 0.068676 -3.338516
v -1.725548 0.068675 3.338248
vt 0.625000 0.500000
vt 0.625000 0.750000
vt 0.875000 0.750000
vt 0.875000 0.500000
vt 0.614613 0.750000
vt 0.614613 1.000000
vt 0.625000 1.000000
vt 0.614613 1.000000
vt 0.625000 1.000000
vt 0.125000 0.500000
vt 0.125000 0.750000
vt 0.375000 0.750000
vt 0.375000 0.500000
vt 0.614613 0.500000
vt 0.614613 0.250000
vt 0.625000 0.250000
vt 0.125000 0.500000
vt 0.125000 0.500000
vt 0.125000 0.750000
vt 0.125000 0.750000
vt 0.875000 0.750000
vt 0.875000 0.500000
vt 0.494807 0.250000
vt 0.494807 0.250000
vt 0.375000 0.250000
vt 0.375000 0.250000
vt 0.875000 0.750000
vt 0.875000 0.750000
vt 0.875000 0.500000
vt 0.875000 0.500000
vt 0.625000 0.000000
vt 0.625000 0.000000
vt 0.614613 0.000000
vt 0.614613 0.000000
vt 0.494807 0.250000
vt 0.375000 0.250000
vt 0.614613 0.250000
vt 0.614613 0.250000
vt 0.614613 0.250000
vt 0.614613 0.250000
vt 0.494807 1.000000
vt 0.494807 1.000000
vt 0.614613 1.000000
vt 0.494807 0.000000
vt 0.625000 0.250000
vt 0.494807 0.500000
vt 0.494807 0.750000
vt 0.494807 1.000000
vt 0.625000 0.250000
vt 0.625000 0.250000
vt 0.875000 0.500000
vt 0.875000 0.500000
vt 0.625000 0.250000
vt 0.614613 1.000000
vt 0.614613 1.000000
vt 0.625000 1.000000
vt 0.625000 1.000000
vt 0.875000 0.750000
vt 0.875000 0.750000
vt 0.614613 0.000000
vt 0.614613 0.250000
vt 0.625000 0.250000
vt 0.625000 0.000000
vt 0.375000 1.000000
vt 0.375000 1.000000
vt 0.375000 0.000000
vt 0.375000 1.000000
vn 0.0000 -1.0000 -0.0000
vn 0.0000 0.0000 -1.0000
vn 1.0000 0.0000 0.0000
vn 0.0000 1.0000 0.0000
vn -1.0000 0.0000 0.0000
vn 0.0000 -0.0000 1.0000
vn -0.6169 0.0000 0.7870
vn -0.6169 0.0000 -0.7870
vn 1.0000 0.0000 0.0008
vn 0.6188 0.0000 -0.7855
vn 0.6364 0.0000 0.7714
usemtl Material.001
s 1
f 1/1/1 2/2/1 3/3/1 4/4/1
f 5/5/2 6/6/2 3/7/2 2/2/2
f 6/6/3 7/8/3 8/9/3 3/7/3
f 9/10/4 10/11/4 11/12/4 12/13/4
f 13/14/5 5/5/5 2/2/5 1/1/5
f 14/15/6 13/14/6 1/1/6 4/16/6
f 15/17/1 16/18/1 17/19/1 18/20/1
f 9/10/3 15/17/3 18/20/3 10/11/3
f 3/3/3 8/21/3 19/22/3 4/4/3
f 20/23/3 21/24/3 15/25/3 9/26/3
f 22/27/1 23/28/1 24/29/1 25/30/1
f 8/21/4 22/27/4 25/30/4 19/22/4
f 22/31/7 26/32/7 27/33/7 28/34/7
f 21/24/2 29/35/2 16/36/2 15/25/2
f 30/37/4 31/38/4 32/39/4 33/40/4
f 34/41/6 35/42/6 28/43/6 7/8/6
f 35/44/3 29/35/3 33/40/3 28/34/3
f 4/16/3 19/45/3 30/37/3 14/15/3
f 20/23/6 36/46/6 13/14/6 14/15/6
f 36/46/5 37/47/5 5/5/5 13/14/5
f 38/48/3 34/41/3 7/8/3 6/6/3
f 37/47/2 38/48/2 6/6/2 5/5/2
f 39/49/2 40/50/2 32/39/2 31/38/2
f 25/30/1 40/51/1 39/52/1 19/22/1
f 33/40/8 32/39/8 40/50/8 25/53/8
f 19/45/3 39/49/3 31/38/3 30/37/3
f 41/54/6 27/55/6 26/56/6 42/57/6
f 28/43/4 27/55/4 41/54/4 7/8/4
f 7/8/3 41/54/3 42/57/3 8/9/3
f 8/21/1 42/58/1 26/59/1 22/27/1
f 43/60/9 44/61/9 24/62/9 23/63/9
f 28/34/10 43/60/10 23/63/10 22/31/10
f 25/53/11 24/62/11 44/61/11 33/40/11
f 33/40/4 44/61/4 43/60/4 28/34/4
f 11/12/2 10/64/2 38/48/2 37/47/2
f 10/64/3 18/65/3 34/41/3 38/48/3
f 12/13/5 11/12/5 37/47/5 36/46/5
f 9/26/6 12/13/6 36/46/6 20/23/6
f 17/66/3 16/36/3 29/35/3 35/44/3
f 18/65/6 17/67/6 35/42/6 34/41/6
f 30/37/2 33/40/2 29/35/2 21/24/2
f 14/15/3 30/37/3 21/24/3 20/23/3
